<svg id="Capa_1" data-name="Capa 1" xmlns="http://www.w3.org/2000/svg" viewBox="0 0 958.67 958.67"><defs><style>.cls-1{fill:#2d2828;}</style></defs><title>radio</title><path class="cls-1" d="M479.34,618.16h0A177.69,177.69,0,0,0,657,440.47V177.7A177.69,177.69,0,0,0,479.34,0h0a177.7,177.7,0,0,0-177.7,177.7V440.47A177.69,177.69,0,0,0,479.34,618.16Z"/><path class="cls-1" d="M152.55,396.48v43.8A326.7,326.7,0,0,0,415.42,760.81v99.86a102.3,102.3,0,0,0-73,98H616.24a102.29,102.29,0,0,0-73-98V760.81A326.59,326.59,0,0,0,806.12,440.27V396.48a85,85,0,0,0-85-85V440.27a241.78,241.78,0,1,1-483.56,0V311.48A85,85,0,0,0,152.55,396.48Z"/></svg>